<svg width="20" height="20" viewBox="0 0 20 20" fill="none" xmlns="http://www.w3.org/2000/svg">
<mask id="path-1-inside-1" fill="white">
<path d="M19.7997 18.7904L12.684 11.6748C15.1833 8.61811 14.7314 4.11413 11.6747 1.61485C8.61809 -0.884436 4.11406 -0.432541 1.61478 2.62412C-0.884514 5.68077 -0.432618 10.1848 2.62404 12.6841C5.25691 14.8368 9.04188 14.8368 11.6747 12.6841L18.7904 19.7997C19.074 20.0736 19.5258 20.0657 19.7997 19.7821C20.0668 19.5055 20.0668 19.067 19.7997 18.7904ZM7.16081 12.8711C4.00863 12.8675 1.45413 10.3131 1.45062 7.16088C1.45062 4.00724 4.00717 1.45069 7.16081 1.45069C10.3145 1.45069 12.871 4.00724 12.871 7.16088C12.871 10.3145 10.3145 12.8711 7.16081 12.8711Z"/>
</mask>
<path d="M19.7997 18.7904L22.677 16.0118C22.6609 15.995 22.6445 15.9784 22.6281 15.962L19.7997 18.7904ZM12.684 11.6748L9.58737 9.14286C8.28689 10.7334 8.40283 13.0505 9.8556 14.5032L12.684 11.6748ZM2.62404 12.6841L0.092075 15.7807L0.0920962 15.7807L2.62404 12.6841ZM11.6747 12.6841L14.5032 9.85564C13.0504 8.40289 10.7333 8.28695 9.1428 9.58742L11.6747 12.6841ZM18.7904 19.7997L15.962 22.6281C15.9784 22.6446 15.9949 22.6608 16.0116 22.6769L18.7904 19.7997ZM19.7997 19.7821L22.6769 22.5609L22.677 22.5608L19.7997 19.7821ZM7.16081 12.8711L7.1563 16.8711H7.16081V12.8711ZM1.45062 7.16088H-2.54938L-2.54938 7.16534L1.45062 7.16088ZM22.6281 15.962L15.5124 8.84637L9.8556 14.5032L16.9712 21.6188L22.6281 15.962ZM15.7807 14.2068C19.6783 9.43981 18.9736 2.41584 14.2067 -1.48178L9.14278 4.71148C10.4892 5.81242 10.6883 7.79641 9.58737 9.14286L15.7807 14.2068ZM14.2067 -1.48178C9.43979 -5.37947 2.41577 -4.67469 -1.48185 0.0921427L4.7114 5.15609C5.81236 3.80961 7.79638 3.6106 9.14278 4.71148L14.2067 -1.48178ZM-1.48185 0.0921427C-5.37955 4.85907 -4.67477 11.8831 0.092075 15.7807L5.15601 9.58744C3.80953 8.48649 3.61052 6.50248 4.7114 5.15609L-1.48185 0.0921427ZM0.0920962 15.7807C4.19807 19.1379 10.1007 19.1379 14.2067 15.7807L9.1428 9.58742C7.98303 10.5357 6.31576 10.5357 5.15599 9.58742L0.0920962 15.7807ZM8.84632 15.5125L15.962 22.6281L21.6188 16.9713L14.5032 9.85564L8.84632 15.5125ZM16.0116 22.6769C17.8842 24.4854 20.8683 24.4335 22.6769 22.5609L16.9224 17.0034C18.1833 15.6979 20.2637 15.6617 21.5692 16.9225L16.0116 22.6769ZM22.677 22.5608C24.441 20.7341 24.441 17.8384 22.677 16.0118L16.9223 21.569C15.6926 20.2956 15.6926 18.2769 16.9223 17.0035L22.677 22.5608ZM7.16533 8.87107C6.2187 8.87 5.45167 8.10289 5.45062 7.15642L-2.54938 7.16534C-2.54341 12.5232 1.79856 16.865 7.1563 16.8711L7.16533 8.87107ZM5.45062 7.16088C5.45062 6.21638 6.2163 5.4507 7.16081 5.4507V-2.54931C1.79803 -2.54931 -2.54938 1.79809 -2.54938 7.16088H5.45062ZM7.16081 5.4507C8.10533 5.4507 8.87101 6.21638 8.87101 7.16088H16.871C16.871 1.79809 12.5236 -2.54931 7.16081 -2.54931V5.4507ZM8.87101 7.16088C8.87101 8.10538 8.10533 8.87106 7.16081 8.87106V16.8711C12.5236 16.8711 16.871 12.5237 16.871 7.16088H8.87101Z" fill="#9C69E2" mask="url(#path-1-inside-1)"/>
</svg>
