<svg width="30" height="28" viewBox="0 0 30 28" fill="none" xmlns="http://www.w3.org/2000/svg">
<path d="M27.9062 12.9062H2.09375C1.48967 12.9062 1 13.3959 1 14C1 14.6041 1.48967 15.0938 2.09375 15.0938H27.9062C28.5103 15.0938 29 14.6041 29 14C29 13.3959 28.5103 12.9062 27.9062 12.9062Z" fill="#9C69E2"/>
<path d="M27.9062 4.15625H2.09375C1.48967 4.15625 1 4.64592 1 5.25C1 5.85408 1.48967 6.34375 2.09375 6.34375H27.9062C28.5103 6.34375 29 5.85408 29 5.25C29 4.64592 28.5103 4.15625 27.9062 4.15625Z" fill="#9C69E2"/>
<path d="M27.9062 21.6562H2.09375C1.48967 21.6562 1 22.1459 1 22.75C1 23.3541 1.48967 23.8438 2.09375 23.8438H27.9062C28.5103 23.8438 29 23.3541 29 22.75C29 22.1459 28.5103 21.6562 27.9062 21.6562Z" fill="#9C69E2"/>
</svg>
